<svg width="1200" height="800" viewBox="0 0 1200 800" fill="none" xmlns="http://www.w3.org/2000/svg">
  <rect width="1200" height="800" rx="36" fill="#07111B"/>
  <g opacity="0.24" filter="url(#glow)">
    <circle cx="160" cy="150" r="140" fill="#00E5FF"/>
    <circle cx="1020" cy="640" r="170" fill="#00E5FF"/>
  </g>
  <rect x="180" y="110" width="840" height="580" rx="30" fill="url(#panel)" stroke="#62F3FF" stroke-opacity="0.2"/>
  <rect x="270" y="170" width="660" height="100" rx="20" fill="#06131E" stroke="#62F3FF" stroke-opacity="0.16"/>
  <rect x="270" y="300" width="130" height="110" rx="20" fill="#0B1B2B"/>
  <rect x="420" y="300" width="130" height="110" rx="20" fill="#0B1B2B"/>
  <rect x="570" y="300" width="130" height="110" rx="20" fill="#0B1B2B"/>
  <rect x="720" y="300" width="130" height="110" rx="20" fill="#0B1B2B"/>
  <rect x="270" y="440" width="130" height="110" rx="20" fill="#0B1B2B"/>
  <rect x="420" y="440" width="130" height="110" rx="20" fill="#0B1B2B"/>
  <rect x="570" y="440" width="130" height="110" rx="20" fill="#0B1B2B"/>
  <rect x="720" y="440" width="130" height="110" rx="20" fill="#0B1B2B"/>
  <rect x="270" y="580" width="430" height="70" rx="20" fill="#62F3FF" fill-opacity="0.9"/>
  <rect x="730" y="580" width="120" height="70" rx="20" fill="#0B1B2B"/>
  <path d="M340 204H800" stroke="#62F3FF" stroke-opacity="0.55" stroke-width="10" stroke-linecap="round"/>
  <defs>
    <filter id="glow" x="0" y="0" width="1200" height="800" filterUnits="userSpaceOnUse" color-interpolation-filters="sRGB">
      <feGaussianBlur stdDeviation="42"/>
    </filter>
    <linearGradient id="panel" x1="600" y1="110" x2="600" y2="690" gradientUnits="userSpaceOnUse">
      <stop stop-color="#0D2236" stop-opacity="0.95"/>
      <stop offset="1" stop-color="#08111B" stop-opacity="0.98"/>
    </linearGradient>
  </defs>
</svg>