<svg width="1200" height="800" viewBox="0 0 1200 800" fill="none" xmlns="http://www.w3.org/2000/svg">
  <rect width="1200" height="800" rx="36" fill="#07111B"/>
  <g opacity="0.25" filter="url(#glow)">
    <circle cx="980" cy="140" r="160" fill="#00E5FF"/>
    <circle cx="220" cy="650" r="180" fill="#00E5FF"/>
  </g>
  <rect x="120" y="100" width="960" height="600" rx="28" fill="url(#panel)" stroke="#62F3FF" stroke-opacity="0.22"/>
  <rect x="240" y="180" width="720" height="110" rx="20" fill="#071521" stroke="#62F3FF" stroke-opacity="0.2"/>
  <rect x="240" y="330" width="300" height="250" rx="28" fill="#0B1B2B" stroke="#62F3FF" stroke-opacity="0.2"/>
  <rect x="570" y="330" width="390" height="250" rx="28" fill="#0B1B2B" stroke="#62F3FF" stroke-opacity="0.2"/>
  <path d="M360 380L420 430L360 480L300 430L360 380Z" fill="#62F3FF" fill-opacity="0.9"/>
  <circle cx="330" cy="415" r="10" fill="#07111B"/>
  <circle cx="390" cy="415" r="10" fill="#07111B"/>
  <circle cx="360" cy="445" r="10" fill="#07111B"/>
  <rect x="620" y="384" width="310" height="26" rx="13" fill="#62F3FF" fill-opacity="0.9"/>
  <rect x="620" y="438" width="220" height="18" rx="9" fill="#9CFBFF" fill-opacity="0.7"/>
  <rect x="620" y="480" width="260" height="18" rx="9" fill="#9CFBFF" fill-opacity="0.45"/>
  <rect x="620" y="522" width="180" height="18" rx="9" fill="#9CFBFF" fill-opacity="0.32"/>
  <defs>
    <filter id="glow" x="0" y="0" width="1200" height="800" filterUnits="userSpaceOnUse" color-interpolation-filters="sRGB">
      <feGaussianBlur stdDeviation="45"/>
    </filter>
    <linearGradient id="panel" x1="600" y1="100" x2="600" y2="700" gradientUnits="userSpaceOnUse">
      <stop stop-color="#0D2236" stop-opacity="0.95"/>
      <stop offset="1" stop-color="#08111B" stop-opacity="0.98"/>
    </linearGradient>
  </defs>
</svg>